<svg xmlns="http://www.w3.org/2000/svg" xmlns:xlink="http://www.w3.org/1999/xlink" width="1333" zoomAndPan="magnify" viewBox="0 0 999.75 499.49999" height="666" preserveAspectRatio="xMidYMid meet" version="1.0"><defs><clipPath id="f211511fee"><path d="M 151.179688 192.222656 L 297.980469 192.222656 L 297.980469 303.511719 L 151.179688 303.511719 Z M 151.179688 192.222656 " clip-rule="nonzero"/></clipPath><clipPath id="2e7b474665"><path d="M 165.804688 192.222656 L 190.25 285.226562 L 216.605469 193.167969 L 232.457031 192.671875 L 258.554688 285.226562 L 282.769531 192.699219 L 297.875 192.699219 L 266.003906 302.5 C 265.394531 303.121094 250.351562 303.339844 249.882812 302.679688 L 224.289062 214.75 L 197.933594 302.5 C 197.203125 303.488281 184.039062 302.878906 181.828125 302.761719 L 151.179688 192.222656 Z M 165.804688 192.222656 " clip-rule="nonzero"/></clipPath><clipPath id="d243813c0e"><path d="M 308.3125 214.59375 L 393.015625 214.59375 L 393.015625 304.257812 L 308.3125 304.257812 Z M 308.3125 214.59375 " clip-rule="nonzero"/></clipPath><clipPath id="0c753cab94"><path d="M 377.925781 253.105469 C 377.632812 217.839844 324.988281 218.359375 323.277344 253.105469 Z M 392.308594 264.613281 L 323.277344 264.613281 C 322.949219 293.453125 364.46875 303.066406 375.777344 276.121094 L 390.871094 276.121094 C 387.074219 291.867188 372.898438 302.324219 357.066406 303.914062 C 322.898438 307.339844 302.878906 279.589844 309.613281 247.351562 C 314.40625 224.355469 333.320312 213.066406 356.105469 214.761719 C 381.890625 216.679688 396.476562 240.136719 392.308594 264.613281 " clip-rule="nonzero"/></clipPath><clipPath id="7f9b615e19"><path d="M 499 63.730469 L 843 63.730469 L 843 435.765625 L 499 435.765625 Z M 499 63.730469 " clip-rule="nonzero"/></clipPath><clipPath id="45b4ca6815"><path d="M 842.921875 63.738281 L 842.921875 435.757812 L 499.683594 353.78125 L 499.683594 331.730469 L 505.917969 331.730469 L 505.917969 348.996094 L 837.167969 427.617188 L 837.167969 71.414062 L 506.199219 150.453125 L 505.847656 177.046875 C 505.359375 178.535156 501.042969 177.574219 499.683594 177.835938 L 499.683594 145.71875 Z M 842.921875 63.738281 " clip-rule="nonzero"/></clipPath><clipPath id="297c8ba4e1"><path d="M 411.953125 185.417969 L 500.722656 185.417969 L 500.722656 305 L 411.953125 305 Z M 411.953125 185.417969 " clip-rule="nonzero"/></clipPath><clipPath id="a29008524c"><path d="M 451.640625 227.347656 C 417.875 231.164062 417.328125 288.273438 453.011719 291.390625 C 495.71875 295.128906 496.007812 222.332031 451.640625 227.347656 M 426.347656 185.507812 L 426.347656 231.53125 L 430.414062 226.246094 C 468.273438 193.378906 513.960938 234.257812 496.21875 278.636719 C 484.449219 308.066406 444.769531 313.628906 426.335938 287.617188 L 426.335938 302.242188 L 425.617188 302.960938 L 411.960938 302.960938 L 411.960938 185.507812 Z M 426.347656 185.507812 " clip-rule="nonzero"/></clipPath><clipPath id="0f9ba035df"><path d="M 698.210938 214.339844 L 786.980469 214.339844 L 786.980469 305 L 698.210938 305 Z M 698.210938 214.339844 " clip-rule="nonzero"/></clipPath><clipPath id="b55f50c5d7"><path d="M 738.792969 227.347656 C 702.820312 231.441406 705.628906 293.808594 744.886719 291.453125 C 783.480469 289.132812 780.691406 222.582031 738.792969 227.347656 M 771.980469 287.617188 C 765.6875 296.265625 757.035156 302.28125 746.277344 303.859375 C 710.011719 309.175781 689.984375 271.152344 702.101562 240.035156 C 712.601562 213.050781 748.105469 205.769531 768.386719 226.246094 L 771.972656 231.042969 L 771.972656 216.1875 L 786.835938 216.1875 L 786.835938 302.960938 L 772.691406 302.960938 L 771.972656 302.242188 Z M 771.980469 287.617188 " clip-rule="nonzero"/></clipPath><clipPath id="7910d061f7"><path d="M 605 216 L 690 216 L 690 344 L 605 344 Z M 605 216 " clip-rule="nonzero"/></clipPath><clipPath id="305257d5fe"><path d="M 620.734375 216.1875 L 648.054688 285.707031 L 674.660156 216.1875 L 689.523438 216.1875 L 637.746094 343.710938 L 622.890625 343.710938 L 639.574219 301.390625 L 605.160156 216.1875 Z M 620.734375 216.1875 " clip-rule="nonzero"/></clipPath><clipPath id="e1471feab2"><path d="M 549 194 L 598 194 L 598 304 L 549 304 Z M 549 194 " clip-rule="nonzero"/></clipPath><clipPath id="5d56c772f6"><path d="M 575.429688 216.1875 L 597.957031 216.1875 L 597.957031 227.457031 L 597.234375 228.175781 L 575.429688 228.175781 L 575.429688 283.550781 C 575.429688 284.359375 577.277344 287.445312 578.054688 288.117188 C 578.996094 288.914062 582.710938 290.503906 583.820312 290.503906 L 597.957031 290.503906 L 597.957031 302.25 C 597.65625 302.722656 597.296875 302.871094 596.757812 302.96875 C 594.417969 303.398438 587.90625 303.128906 585.226562 302.992188 C 572.519531 302.3125 563.371094 299.164062 561.171875 285.339844 C 559.855469 266.367188 560.894531 247.214844 560.5625 228.175781 L 550.261719 228.175781 L 549.542969 227.457031 L 549.542969 216.1875 L 560.574219 216.1875 L 560.574219 194.140625 L 574.71875 194.140625 L 575.4375 194.859375 Z M 575.429688 216.1875 " clip-rule="nonzero"/></clipPath><clipPath id="da9e3b875c"><path d="M 518.675781 216 L 533.636719 216 L 533.636719 303 L 518.675781 303 Z M 518.675781 216 " clip-rule="nonzero"/></clipPath><clipPath id="887e75984e"><path d="M 533.242188 216.1875 L 533.242188 302.242188 L 532.519531 302.960938 L 518.863281 302.960938 L 518.863281 216.1875 Z M 533.242188 216.1875 " clip-rule="nonzero"/></clipPath><clipPath id="cbcae9018a"><path d="M 516 182 L 536 182 L 536 202.371094 L 516 202.371094 Z M 516 182 " clip-rule="nonzero"/></clipPath><clipPath id="b83516b340"><path d="M 519.035156 185.199219 C 527.546875 176.6875 541.382812 188.695312 533.488281 198.457031 C 524.957031 209.015625 509.792969 194.4375 519.035156 185.199219 " clip-rule="nonzero"/></clipPath></defs><g clip-path="url(#f211511fee)"><g clip-path="url(#2e7b474665)"><path fill="#231f20" d="M 151.179688 192.222656 L 297.980469 192.222656 L 297.980469 303.078125 L 151.179688 303.078125 Z M 151.179688 192.222656 " fill-opacity="1" fill-rule="nonzero"/></g></g><g clip-path="url(#d243813c0e)"><g clip-path="url(#0c753cab94)"><path fill="#231f20" d="M 308.3125 214.59375 L 393.015625 214.59375 L 393.015625 304.257812 L 308.3125 304.257812 Z M 308.3125 214.59375 " fill-opacity="1" fill-rule="nonzero"/></g></g><g clip-path="url(#7f9b615e19)"><g clip-path="url(#45b4ca6815)"><path fill="#231f20" d="M 406.964844 58.746094 L 847.824219 58.746094 L 847.824219 440.753906 L 406.964844 440.753906 Z M 406.964844 58.746094 " fill-opacity="1" fill-rule="nonzero"/></g></g><g clip-path="url(#297c8ba4e1)"><g clip-path="url(#a29008524c)"><path fill="#231f20" d="M 406.964844 58.746094 L 847.824219 58.746094 L 847.824219 440.753906 L 406.964844 440.753906 Z M 406.964844 58.746094 " fill-opacity="1" fill-rule="nonzero"/></g></g><g clip-path="url(#0f9ba035df)"><g clip-path="url(#b55f50c5d7)"><path fill="#231f20" d="M 406.964844 58.746094 L 847.824219 58.746094 L 847.824219 440.753906 L 406.964844 440.753906 Z M 406.964844 58.746094 " fill-opacity="1" fill-rule="nonzero"/></g></g><g clip-path="url(#7910d061f7)"><g clip-path="url(#305257d5fe)"><path fill="#231f20" d="M 406.964844 58.746094 L 847.824219 58.746094 L 847.824219 440.753906 L 406.964844 440.753906 Z M 406.964844 58.746094 " fill-opacity="1" fill-rule="nonzero"/></g></g><g clip-path="url(#e1471feab2)"><g clip-path="url(#5d56c772f6)"><path fill="#231f20" d="M 406.964844 58.746094 L 847.824219 58.746094 L 847.824219 440.753906 L 406.964844 440.753906 Z M 406.964844 58.746094 " fill-opacity="1" fill-rule="nonzero"/></g></g><g clip-path="url(#da9e3b875c)"><g clip-path="url(#887e75984e)"><path fill="#231f20" d="M 406.964844 58.746094 L 847.824219 58.746094 L 847.824219 440.753906 L 406.964844 440.753906 Z M 406.964844 58.746094 " fill-opacity="1" fill-rule="nonzero"/></g></g><g clip-path="url(#cbcae9018a)"><g clip-path="url(#b83516b340)"><path fill="#231f20" d="M 406.964844 58.746094 L 847.824219 58.746094 L 847.824219 440.753906 L 406.964844 440.753906 Z M 406.964844 58.746094 " fill-opacity="1" fill-rule="nonzero"/></g></g></svg>